<?xml version="1.0" standalone="no"?>
<!DOCTYPE svg PUBLIC "-//W3C//DTD SVG 1.1//EN" "http://www.w3.org/Graphics/SVG/1.1/DTD/svg11.dtd">
<svg xmlns="http://www.w3.org/2000/svg" id="arata_logo" viewBox="0 0 924 306" width="924" height="306">
  <defs>
    <style>
      .cls-1 {
        fill: #1e22aa;
        stroke-width: 0px;
      }
    </style>
  </defs>
  <path class="cls-1" d="M144.7,113.35h.7l17.2,49.5h-35.1l17.2-49.5ZM137.6,101.95l-35.6,101.7h12.4l10.2-30h41.1l10.2,30h12.8l-35.5-101.7h-15.6Z"/>
  <path class="cls-1" d="M289.9,111.95v40.1h19.1c15.4,0,26.5-5.5,26.5-19.7s-11.2-20.5-26.8-20.5h-18.8v.1ZM353.1,203.35s-1.8.7-4.8.7c-20.2,0-28.2-42-41.8-42h-16.6v41.5h-11.1v-101.6h30.6c22,0,37.3,8.1,37.3,30.6,0,16.2-9.7,25.1-24.4,28.2,9.6,11.4,18,33.3,27.9,33.3,2,0,2.8-.4,2.8-.4v9.7h.1Z"/>
  <path class="cls-1" d="M473.5,113.35h.7l17.2,49.5h-35.1l17.2-49.5ZM466.4,101.95l-35.5,101.7h12.4l10.2-30h41.1l10.2,30h12.8l-35.6-101.7h-15.6Z"/>
  <polygon class="cls-1" points="588 101.95 588 112.75 620.4 112.75 620.4 203.65 632.6 203.65 632.6 112.75 665 112.75 665 101.95 588 101.95"/>
  <path class="cls-1" d="M778,113.35h.7l17.2,49.5h-35.1l17.2-49.5ZM770.9,101.95l-35.5,101.7h12.4l10.2-30h41l10.2,30h12.8l-35.5-101.7h-15.6Z"/>
</svg>